<svg width="136" height="137" viewBox="0 0 136 137" fill="none" xmlns="http://www.w3.org/2000/svg">
<path d="M71.5 20.8423V21.5455L62.5 21.5455V20.8423L71.5 20.8423Z" fill="#8C6CAA"/>
<path d="M78.3215 24.7493L80.0507 18.4365L83.8607 19.4801L83.6749 20.1582L80.6294 19.324L80.0451 21.4571L82.8933 22.2373L82.7075 22.9154L79.8593 22.1352L79.2717 24.2806L82.3665 25.1284L82.1807 25.8065L78.3215 24.7493Z" fill="#8C6CAA"/>
<path d="M86.8554 20.5442L87.346 23.7099L87.393 23.7299L90.0097 21.8817L90.8689 22.2461L87.6963 24.4556L88.3136 28.2721L87.4544 27.9078L86.9439 24.7892L86.8968 24.7692L84.3001 26.5703L83.4409 26.2059L86.6606 24.0164L85.9962 20.1799L86.8554 20.5442Z" fill="#8C6CAA"/>
<path d="M89.5082 28.9195L92.8439 23.2878L94.7468 24.4149C95.1886 24.6766 95.5025 24.9702 95.6885 25.2959C95.8775 25.6207 95.96 25.9581 95.936 26.3079C95.912 26.6578 95.8018 26.9986 95.6053 27.3304C95.4087 27.6622 95.1623 27.9236 94.8659 28.1146C94.5714 28.3067 94.2361 28.4003 93.8601 28.3955C93.4851 28.3888 93.0786 28.2558 92.6404 27.9962L91.2765 27.1884L91.6348 26.5834L92.9767 27.3782C93.2792 27.5574 93.5531 27.649 93.7983 27.6531C94.0435 27.6572 94.26 27.5948 94.4479 27.4658C94.6386 27.3361 94.8007 27.1585 94.9343 26.933C95.0679 26.7075 95.1451 26.4809 95.1661 26.2531C95.189 26.0264 95.1377 25.8078 95.0122 25.5973C94.8879 25.385 94.6726 25.1882 94.3665 25.0068L93.1675 24.2967L90.1902 29.3235L89.5082 28.9195Z" fill="#8C6CAA"/>
<path d="M95.1797 32.5321L99.2363 27.3952L99.8583 27.8864L96.2376 32.4715L98.6254 34.3571L98.1896 34.9089L95.1797 32.5321Z" fill="#8C6CAA"/>
<path d="M105.368 37.5083C104.872 37.9882 104.357 38.3134 103.822 38.4837C103.287 38.6541 102.771 38.6779 102.272 38.555C101.774 38.4322 101.331 38.1701 100.943 37.7689C100.555 37.3676 100.308 36.9159 100.202 36.4139C100.095 35.9118 100.136 35.3964 100.325 34.8677C100.513 34.3389 100.855 33.8346 101.351 33.3546C101.847 32.8747 102.363 32.5496 102.898 32.3792C103.432 32.2088 103.949 32.1851 104.447 32.3079C104.945 32.4307 105.388 32.6928 105.777 33.0941C106.165 33.4954 106.412 33.947 106.518 34.4491C106.624 34.9511 106.583 35.4665 106.395 35.9953C106.207 36.524 105.865 37.0284 105.368 37.5083ZM104.835 36.9569C105.242 36.5629 105.52 36.1622 105.669 35.7548C105.819 35.349 105.854 34.9608 105.774 34.5903C105.696 34.2214 105.519 33.8944 105.244 33.6096C104.968 33.3247 104.647 33.1362 104.279 33.0442C103.913 32.9537 103.524 32.9758 103.111 33.1106C102.701 33.2469 102.292 33.512 101.884 33.906C101.477 34.3 101.198 34.6999 101.048 35.1058C100.9 35.5132 100.865 35.9013 100.943 36.2703C101.023 36.6408 101.2 36.9685 101.476 37.2534C101.751 37.5383 102.072 37.7259 102.438 37.8165C102.806 37.9085 103.195 37.8864 103.606 37.7501C104.018 37.6153 104.428 37.3509 104.835 36.9569Z" fill="#8C6CAA"/>
<path d="M103.449 40.4141L108.719 36.5314L110.031 38.312C110.334 38.7236 110.513 39.1134 110.567 39.4812C110.622 39.8477 110.575 40.1842 110.425 40.4906C110.275 40.797 110.045 41.0646 109.734 41.2934C109.424 41.5221 109.102 41.6615 108.768 41.7115C108.434 41.7615 108.102 41.7059 107.772 41.5445C107.443 41.3819 107.128 41.0965 106.827 40.6882L105.766 39.2473L106.342 38.8227L107.388 40.243C107.596 40.5243 107.804 40.7204 108.012 40.8313C108.222 40.9438 108.431 40.9831 108.639 40.9491C108.85 40.9155 109.061 40.821 109.272 40.6655C109.483 40.5101 109.638 40.3348 109.738 40.1396C109.837 39.9444 109.866 39.7286 109.825 39.4921C109.784 39.2544 109.659 38.9932 109.45 38.7085L108.623 37.5866L103.919 41.0522L103.449 40.4141ZM107.644 41.1503L106.232 44.1913L105.686 43.4502L107.113 40.4299L107.644 41.1503Z" fill="#8C6CAA"/>
<path d="M107.036 45.5376L112.776 42.392L114.674 45.8562L114.058 46.1941L112.54 43.425L110.601 44.4879L112.02 47.0776L111.403 47.4155L109.984 44.8258L108.033 45.8948L109.575 48.7088L108.959 49.0467L107.036 45.5376Z" fill="#8C6CAA"/>
<path d="M118.02 54.281L118.231 55.1639L115.679 57.6381L115.697 57.7127L119.09 58.7703L119.3 59.6532L115.009 58.2447L112.385 58.87L112.201 58.099L114.825 57.4736L118.02 54.281Z" fill="#8C6CAA"/>
<path d="M116.88 67.3417C116.194 67.4108 115.587 67.3465 115.062 67.1488C114.537 66.9511 114.117 66.6496 113.802 66.2445C113.487 65.8393 113.302 65.359 113.246 64.8035C113.19 64.2481 113.276 63.7405 113.504 63.2807C113.732 62.8209 114.083 62.4419 114.559 62.1435C115.034 61.8451 115.615 61.6614 116.302 61.5923C116.989 61.5232 117.595 61.5875 118.12 61.7852C118.645 61.9829 119.066 62.2844 119.38 62.6895C119.695 63.0947 119.881 63.575 119.937 64.1305C119.992 64.6859 119.906 65.1935 119.679 65.6533C119.451 66.113 119.099 66.4921 118.624 66.7905C118.148 67.0889 117.567 67.2726 116.88 67.3417ZM116.804 66.5785C117.368 66.5218 117.834 66.3795 118.203 66.1518C118.572 65.9263 118.84 65.6434 119.007 65.3032C119.175 64.9652 119.238 64.599 119.199 64.2047C119.159 63.8104 119.024 63.4632 118.792 63.1631C118.561 62.8651 118.242 62.6413 117.835 62.4917C117.428 62.3442 116.943 62.2988 116.379 62.3555C115.815 62.4122 115.348 62.5534 114.979 62.779C114.61 63.0067 114.342 63.2896 114.175 63.6276C114.008 63.9678 113.944 64.335 113.984 64.7293C114.023 65.1236 114.159 65.4698 114.39 65.7677C114.622 66.0678 114.941 66.2916 115.347 66.4391C115.754 66.5888 116.24 66.6352 116.804 66.5785Z" fill="#8C6CAA"/>
<path d="M119.976 72.8245L119.949 73.6166L115.618 73.4718C115.171 73.4569 114.775 73.3381 114.431 73.1155C114.088 72.8952 113.823 72.591 113.633 72.2031C113.446 71.8152 113.36 71.3647 113.378 70.8515C113.395 70.3383 113.51 69.8944 113.723 69.5199C113.938 69.1455 114.223 68.8587 114.58 68.6596C114.938 68.4626 115.341 68.3716 115.788 68.3866L120.119 68.5314L120.093 69.3236L115.825 69.1809C115.506 69.1702 115.219 69.231 114.965 69.3632C114.714 69.4955 114.512 69.6892 114.361 69.9442C114.212 70.2014 114.131 70.5121 114.119 70.8762C114.106 71.2404 114.166 71.5558 114.298 71.8224C114.432 72.0891 114.62 72.2958 114.863 72.4425C115.107 72.5913 115.389 72.6711 115.708 72.6818L119.976 72.8245Z" fill="#8C6CAA"/>
<path d="M113.244 74.4901L119.698 75.5788L119.331 77.7597C119.246 78.2639 119.09 78.6633 118.863 78.9578C118.638 79.2526 118.363 79.4526 118.039 79.5578C117.714 79.6629 117.362 79.6834 116.981 79.6193C116.601 79.5551 116.277 79.4205 116.009 79.2154C115.741 79.0103 115.55 78.7329 115.437 78.3831C115.325 78.0336 115.311 77.6089 115.395 77.1088L115.693 75.344L116.399 75.4631L116.106 77.2027C116.047 77.5473 116.051 77.8331 116.117 78.0602C116.182 78.2894 116.299 78.4669 116.468 78.5926C116.638 78.7208 116.853 78.8067 117.111 78.8503C117.37 78.8939 117.604 78.8837 117.813 78.8196C118.023 78.7556 118.198 78.6263 118.339 78.4318C118.482 78.2377 118.583 77.9663 118.642 77.6175L118.873 76.2435L113.112 75.2717L113.244 74.4901ZM115.631 78.0172L112.464 79.1165L112.617 78.2089L115.78 77.1348L115.631 78.0172Z" fill="#8C6CAA"/>
<path d="M110.183 86.2245L116.121 88.9797L115.19 90.9858C114.974 91.4516 114.713 91.7934 114.407 92.011C114.103 92.2315 113.776 92.3474 113.425 92.3586C113.075 92.3697 112.725 92.2942 112.375 92.1318C112.025 91.9695 111.74 91.7505 111.52 91.4747C111.3 91.2009 111.173 90.8766 111.14 90.502C111.109 90.1283 111.201 89.7104 111.415 89.2485L112.083 87.8106L112.721 88.1065L112.064 89.5213C111.916 89.8402 111.852 90.1218 111.873 90.3662C111.893 90.6106 111.977 90.8198 112.124 90.9938C112.272 91.1706 112.465 91.3141 112.703 91.4245C112.941 91.5348 113.174 91.589 113.403 91.5871C113.63 91.5871 113.843 91.5142 114.04 91.3683C114.239 91.2233 114.413 90.9894 114.563 90.6667L115.149 89.4027L109.85 86.9434L110.183 86.2245Z" fill="#8C6CAA"/>
<path d="M107.525 91.6526L113.042 95.1746L111.852 97.0388C111.577 97.4698 111.277 97.7766 110.953 97.9592C110.631 98.1429 110.3 98.2198 109.96 98.1899C109.621 98.16 109.288 98.0413 108.963 97.8337C108.638 97.6262 108.392 97.3758 108.226 97.0824C108.059 96.789 107.992 96.459 108.023 96.0925C108.057 95.7272 108.21 95.3308 108.483 94.9033L109.446 93.3948L110.049 93.78L109.1 95.267C108.912 95.5615 108.804 95.8261 108.775 96.0607C108.746 96.2972 108.784 96.5062 108.891 96.6879C108.998 96.8726 109.162 97.0354 109.383 97.1764C109.604 97.3175 109.823 97.3994 110.041 97.4223C110.259 97.4451 110.471 97.3945 110.676 97.2705C110.884 97.1475 111.083 96.937 111.273 96.6389L112.023 95.4643L107.098 92.3207L107.525 91.6526ZM108.345 95.8317L105 95.6073L105.495 94.8314L108.827 95.0774L108.345 95.8317Z" fill="#8C6CAA"/>
<path d="M103.225 102.865C102.698 102.419 102.323 101.939 102.1 101.424C101.877 100.908 101.801 100.397 101.874 99.889C101.946 99.381 102.163 98.9138 102.523 98.4875C102.883 98.0612 103.308 97.7701 103.797 97.6143C104.286 97.4584 104.803 97.4477 105.348 97.5819C105.893 97.7162 106.429 98.0062 106.956 98.4519C107.483 98.8976 107.858 99.378 108.081 99.893C108.304 100.408 108.38 100.92 108.307 101.428C108.235 101.936 108.019 102.403 107.658 102.829C107.298 103.255 106.873 103.546 106.384 103.702C105.895 103.858 105.378 103.869 104.833 103.735C104.288 103.6 103.752 103.31 103.225 102.865ZM103.72 102.279C104.153 102.645 104.58 102.881 105 102.988C105.419 103.097 105.808 103.093 106.169 102.976C106.528 102.862 106.836 102.653 107.092 102.35C107.348 102.048 107.503 101.709 107.558 101.334C107.611 100.96 107.55 100.575 107.375 100.179C107.198 99.784 106.893 99.4036 106.461 99.0377C106.028 98.6717 105.602 98.4345 105.183 98.326C104.763 98.219 104.373 98.2229 104.014 98.3377C103.653 98.4541 103.345 98.6636 103.089 98.9662C102.833 99.2689 102.679 99.6069 102.625 99.9803C102.571 100.355 102.632 100.74 102.808 101.135C102.984 101.532 103.288 101.913 103.72 102.279Z" fill="#8C6CAA"/>
<path d="M98.9079 102.362L100.406 101.007L104.797 105.862L103.232 107.277C102.761 107.703 102.27 107.97 101.76 108.079C101.25 108.189 100.743 108.144 100.237 107.943C99.7323 107.745 99.2528 107.394 98.7983 106.891C98.341 106.386 98.0373 105.869 97.8873 105.341C97.7387 104.815 97.748 104.298 97.9153 103.79C98.084 103.284 98.4149 102.808 98.9079 102.362ZM100.29 102.06L99.4175 102.849C99.0161 103.212 98.7535 103.591 98.6296 103.984C98.5058 104.378 98.5084 104.776 98.6376 105.179C98.7667 105.583 99.0099 105.982 99.3672 106.377C99.7216 106.769 100.091 107.048 100.475 107.215C100.86 107.384 101.248 107.429 101.64 107.351C102.033 107.274 102.419 107.064 102.798 106.721L103.737 105.872L100.29 102.06Z" fill="#8C6CAA"/>
<path d="M95.821 112.98L95.1676 113.428L92.7148 109.855C92.4616 109.486 92.3225 109.097 92.2974 108.688C92.2718 108.282 92.3589 107.887 92.5588 107.505C92.7599 107.124 93.0721 106.788 93.4955 106.497C93.9188 106.207 94.3444 106.036 94.7722 105.985C95.2012 105.936 95.6015 105.996 95.9731 106.165C96.3443 106.337 96.6564 106.607 96.9097 106.976L99.3624 110.549L98.7089 110.997L96.2924 107.477C96.1115 107.213 95.8925 107.019 95.6355 106.893C95.3797 106.769 95.1042 106.721 94.8091 106.751C94.5135 106.783 94.2155 106.902 93.9151 107.109C93.6147 107.315 93.3963 107.55 93.2598 107.814C93.1245 108.08 93.0697 108.354 93.0954 108.636C93.1206 108.922 93.2236 109.196 93.4045 109.459L95.821 112.98Z" fill="#8C6CAA"/>
<path d="M88.1686 114.762L88.876 114.404C89.0207 114.587 89.1842 114.728 89.3666 114.83C89.5472 114.932 89.738 114.998 89.9392 115.027C90.1395 115.06 90.3424 115.057 90.5481 115.02C90.7537 114.983 90.9536 114.916 91.1475 114.818C91.5012 114.639 91.7765 114.388 91.9733 114.064C92.1682 113.741 92.2624 113.363 92.2558 112.929C92.2473 112.497 92.1152 112.027 91.8596 111.522C91.604 111.016 91.3046 110.631 90.9614 110.368C90.6163 110.105 90.2559 109.957 89.8804 109.922C89.5029 109.888 89.1373 109.961 88.7836 110.14C88.5896 110.238 88.4167 110.358 88.2648 110.502C88.113 110.646 87.9903 110.807 87.8967 110.985C87.8022 111.167 87.7425 111.36 87.7176 111.566C87.6918 111.775 87.709 111.991 87.769 112.214L87.0616 112.571C86.9639 112.246 86.9259 111.929 86.9475 111.622C86.969 111.316 87.0426 111.026 87.1682 110.755C87.2947 110.486 87.4667 110.243 87.6839 110.026C87.8993 109.809 88.1544 109.627 88.4492 109.478C88.9474 109.226 89.452 109.124 89.9629 109.171C90.4739 109.219 90.954 109.41 91.4033 109.747C91.8525 110.083 92.2329 110.559 92.5442 111.176C92.8556 111.792 93.0134 112.38 93.0177 112.942C93.022 113.503 92.8916 114.003 92.6267 114.443C92.3618 114.882 91.9802 115.228 91.4819 115.479C91.1872 115.628 90.8889 115.725 90.587 115.771C90.2832 115.817 89.9849 115.81 89.6922 115.75C89.4003 115.692 89.1245 115.581 88.8646 115.416C88.6057 115.253 88.3737 115.035 88.1686 114.762Z" fill="#8C6CAA"/>
<path d="M87.2797 116.569L87.5103 117.233L82.8728 118.844L82.6422 118.18L84.5866 117.504L82.6701 111.985L83.4189 111.725L85.3353 117.244L87.2797 116.569Z" fill="#8C6CAA"/>
<path d="M66.9171 117.715L66.8701 117.013L75.85 116.412L75.897 117.113L66.9171 117.715Z" fill="#8C6CAA"/>
<path d="M60.9894 113.834L59.6856 120.248L55.8145 119.461L55.9545 118.772L59.0489 119.401L59.4894 117.234L56.5955 116.645L56.7355 115.956L59.6295 116.545L60.0726 114.365L56.9281 113.726L57.0681 113.036L60.9894 113.834Z" fill="#8C6CAA"/>
<path d="M52.7553 118.599L52.0544 115.473L52.0061 115.457L49.5188 117.475L48.6372 117.169L51.6551 114.753L50.7842 110.986L51.6658 111.292L52.3835 114.37L52.4318 114.386L54.9024 112.416L55.784 112.722L52.7178 115.122L53.6369 118.905L52.7553 118.599Z" fill="#8C6CAA"/>
<path d="M49.549 110.42L46.597 116.262L44.623 115.264C44.1647 115.033 43.8319 114.761 43.6246 114.448C43.4143 114.137 43.3095 113.806 43.31 113.455C43.3106 113.104 43.3978 112.757 43.5717 112.413C43.7457 112.068 43.9741 111.791 44.2571 111.581C44.5381 111.37 44.8664 111.254 45.2419 111.233C45.6165 111.215 46.031 111.321 46.4855 111.55L47.9003 112.265L47.5832 112.893L46.1912 112.189C45.8774 112.031 45.5981 111.958 45.3531 111.97C45.1082 111.982 44.8963 112.059 44.7175 112.2C44.5359 112.342 44.386 112.53 44.2678 112.764C44.1496 112.998 44.0876 113.23 44.0819 113.458C44.0742 113.686 44.14 113.901 44.2792 114.102C44.4175 114.306 44.6454 114.488 44.963 114.648L46.2067 115.277L48.8416 110.062L49.549 110.42Z" fill="#8C6CAA"/>
<path d="M43.6489 107.194L39.9445 112.591L39.291 112.142L42.5975 107.325L40.089 105.603L40.4869 105.024L43.6489 107.194Z" fill="#8C6CAA"/>
<path d="M33.1507 102.91C33.6138 102.398 34.1064 102.039 34.6286 101.833C35.1508 101.627 35.6645 101.569 36.1698 101.658C36.6751 101.748 37.1348 101.98 37.5488 102.354C37.9628 102.728 38.2395 103.163 38.379 103.656C38.5184 104.15 38.5119 104.667 38.3595 105.207C38.2071 105.748 37.8993 106.274 37.4363 106.786C36.9732 107.298 36.4806 107.656 35.9584 107.862C35.4362 108.068 34.9225 108.126 34.4171 108.037C33.9118 107.948 33.4522 107.716 33.0382 107.341C32.6241 106.967 32.3474 106.533 32.208 106.039C32.0686 105.545 32.0751 105.028 32.2275 104.488C32.3799 103.948 32.6876 103.422 33.1507 102.91ZM33.7196 103.424C33.3394 103.844 33.0889 104.263 32.968 104.679C32.8455 105.094 32.8364 105.484 32.9406 105.848C33.0433 106.211 33.2416 106.525 33.5355 106.791C33.8295 107.057 34.1629 107.224 34.5359 107.291C34.9072 107.357 35.294 107.309 35.6962 107.147C36.0968 106.983 36.4872 106.691 36.8674 106.271C37.2476 105.851 37.4989 105.433 37.6214 105.018C37.7423 104.602 37.7514 104.212 37.6487 103.849C37.5444 103.485 37.3454 103.17 37.0514 102.904C36.7575 102.638 36.4249 102.472 36.0535 102.406C35.6805 102.339 35.2937 102.387 34.8931 102.551C34.4909 102.713 34.0998 103.004 33.7196 103.424Z" fill="#8C6CAA"/>
<path d="M34.8713 99.8821L29.8728 104.108L28.4449 102.419C28.1148 102.029 27.9105 101.652 27.8321 101.288C27.752 100.926 27.7766 100.587 27.9059 100.272C28.0351 99.9559 28.247 99.6736 28.5415 99.4246C28.836 99.1756 29.1481 99.015 29.4777 98.9428C29.8073 98.8707 30.1424 98.904 30.483 99.0429C30.822 99.1832 31.1552 99.4469 31.4826 99.8342L32.6382 101.201L32.0914 101.663L30.9524 100.316C30.7268 100.049 30.5062 99.8673 30.2905 99.7706C30.0735 99.6723 29.8624 99.6471 29.6573 99.6949C29.4492 99.7425 29.2451 99.8509 29.045 100.02C28.8449 100.189 28.7016 100.375 28.6152 100.576C28.5288 100.777 28.5143 100.995 28.5719 101.228C28.6279 101.462 28.77 101.715 28.9984 101.985L29.8981 103.049L34.3596 99.2768L34.8713 99.8821ZM30.6367 99.4277L31.8422 96.2993L32.4364 97.0022L31.2145 100.111L30.6367 99.4277Z" fill="#8C6CAA"/>
<path d="M30.9507 95.0095L25.4336 98.5315L23.308 95.2019L23.9007 94.8235L25.5998 97.4851L27.464 96.2951L25.8749 93.8059L26.4676 93.4276L28.0566 95.9167L29.9316 94.7198L28.205 92.0151L28.7976 91.6368L30.9507 95.0095Z" fill="#8C6CAA"/>
<path d="M19.4068 87.0194L19.1379 86.1525L21.5182 83.5134L21.4955 83.4402L18.0395 82.6116L17.7705 81.7446L22.1465 82.8634L24.7228 82.0643L24.9577 82.8213L22.3813 83.6205L19.4068 87.0194Z" fill="#8C6CAA"/>
<path d="M19.6716 73.9117C20.3524 73.7969 20.9614 73.8206 21.4987 73.9828C22.036 74.1449 22.4752 74.4177 22.8165 74.8009C23.1577 75.1841 23.3747 75.651 23.4676 76.2015C23.5604 76.7519 23.5085 77.2641 23.3119 77.7381C23.1153 78.2121 22.7898 78.6138 22.3354 78.9432C21.881 79.2727 21.3135 79.4948 20.6328 79.6096C19.952 79.7245 19.343 79.7008 18.8057 79.5386C18.2684 79.3764 17.8292 79.1037 17.4879 78.7205C17.1467 78.3372 16.9297 77.8704 16.8368 77.3199C16.744 76.7695 16.7959 76.2572 16.9925 75.7833C17.1891 75.3093 17.5146 74.9076 17.969 74.5781C18.4234 74.2487 18.9909 74.0266 19.6716 73.9117ZM19.7992 74.6681C19.2404 74.7624 18.7845 74.9354 18.4315 75.1873C18.0782 75.437 17.8296 75.7372 17.6856 76.0877C17.5413 76.4362 17.502 76.8058 17.568 77.1966C17.6339 77.5874 17.7923 77.9247 18.0434 78.2087C18.294 78.4905 18.6273 78.6925 19.0434 78.8146C19.459 78.9347 19.9463 78.9476 20.5052 78.8533C21.064 78.759 21.5201 78.587 21.8734 78.3373C22.2264 78.0854 22.475 77.7853 22.6193 77.4368C22.7633 77.0862 22.8023 76.7156 22.7364 76.3248C22.6705 75.934 22.5122 75.5977 22.2616 75.3158C22.0106 75.0319 21.6772 74.8299 21.2616 74.7099C20.8455 74.5878 20.3581 74.5738 19.7992 74.6681Z" fill="#8C6CAA"/>
<path d="M16.2169 68.6479L16.1904 67.8558L20.5218 67.711C20.969 67.696 21.3718 67.7881 21.7302 67.9871C22.0864 68.1841 22.3721 68.4699 22.5871 68.8443C22.8 69.2188 22.9151 69.6626 22.9322 70.1758C22.9494 70.689 22.8643 71.1396 22.6768 71.5274C22.4873 71.9154 22.2214 72.2206 21.8792 72.4431C21.5348 72.6635 21.139 72.7812 20.6918 72.7962L16.3605 72.941L16.334 72.1488L20.6015 72.0061C20.9209 71.9955 21.2028 71.9157 21.4473 71.7668C21.6896 71.618 21.8778 71.4113 22.0117 71.1468C22.1435 70.8801 22.2033 70.5647 22.1912 70.2006C22.179 69.8365 22.0983 69.5258 21.949 69.2685C21.7975 69.0114 21.596 68.8177 21.3443 68.6876C21.0905 68.5553 20.8038 68.4946 20.4844 68.5053L16.2169 68.6479Z" fill="#8C6CAA"/>
<path d="M22.8223 66.5364L16.3097 65.8812L16.531 63.6807C16.5822 63.1719 16.7112 62.763 16.9178 62.454C17.1224 62.1448 17.3831 61.9269 17.6999 61.8003C18.0167 61.6737 18.367 61.6297 18.7507 61.6683C19.1344 61.7069 19.4668 61.8196 19.7478 62.0063C20.0288 62.1931 20.2378 62.4571 20.3748 62.7985C20.5096 63.1398 20.5517 63.5626 20.5009 64.0672L20.3218 65.848L19.6095 65.7763L19.7861 64.021C19.821 63.6733 19.7983 63.3883 19.7179 63.1661C19.6377 62.9417 19.5091 62.7725 19.3321 62.6583C19.1532 62.5418 18.9334 62.4705 18.6727 62.4442C18.4119 62.418 18.1791 62.4438 17.9743 62.5217C17.7694 62.5996 17.6032 62.7403 17.4757 62.9437C17.346 63.147 17.2635 63.4246 17.2281 63.7765L17.0886 65.163L22.9016 65.7477L22.8223 66.5364ZM20.2051 63.1766L23.2919 61.8682L23.1997 62.784L20.1155 64.067L20.2051 63.1766Z" fill="#8C6CAA"/>
<path d="M25.0926 54.6238L18.9845 52.2713L19.7794 50.2074C19.9639 49.7283 20.2013 49.3699 20.4914 49.1323C20.7804 48.8919 21.0993 48.7545 21.4482 48.7199C21.7972 48.6854 22.1516 48.7374 22.5115 48.876C22.8714 49.0146 23.1701 49.2141 23.4077 49.4746C23.6461 49.7331 23.7942 50.0481 23.852 50.4197C23.9078 50.7906 23.8442 51.2136 23.6612 51.6888L23.0914 53.1681L22.4353 52.9154L22.9958 51.4599C23.1222 51.1319 23.167 50.8466 23.1302 50.6041C23.0935 50.3616 22.9959 50.1585 22.8375 49.9948C22.6779 49.8283 22.4758 49.6979 22.2312 49.6037C21.9866 49.5095 21.7503 49.471 21.5222 49.4882C21.2949 49.5034 21.0879 49.5903 20.9012 49.749C20.7125 49.907 20.5542 50.152 20.4263 50.484L19.9255 51.7844L25.3775 53.8841L25.0926 54.6238Z" fill="#8C6CAA"/>
<path d="M27.3827 49.0302L21.6427 45.8846L22.7056 43.9451C22.9513 43.4966 23.2296 43.1705 23.5406 42.9667C23.8496 42.7619 24.1747 42.6631 24.5158 42.6702C24.8569 42.6774 25.1965 42.7736 25.5347 42.9589C25.8729 43.1443 26.1349 43.3778 26.3207 43.6594C26.5066 43.941 26.5959 44.2657 26.5887 44.6335C26.5796 45.0003 26.4532 45.406 26.2095 45.8507L25.3494 47.4203L24.7216 47.0762L25.5694 45.5291C25.7374 45.2227 25.8277 44.9514 25.8404 44.7154C25.8541 44.4776 25.8018 44.2715 25.6835 44.0974C25.5643 43.9203 25.3898 43.7688 25.1599 43.6428C24.9301 43.5169 24.7057 43.4498 24.4867 43.4415C24.2677 43.4333 24.0598 43.4979 23.8629 43.6354C23.6642 43.7719 23.4799 43.9952 23.3099 44.3054L22.6402 45.5274L27.7636 48.3351L27.3827 49.0302ZM26.2848 44.9153L29.6375 44.9158L29.1951 45.723L25.8548 45.7001L26.2848 44.9153Z" fill="#8C6CAA"/>
<path d="M30.9237 37.5561C31.4795 37.9656 31.8858 38.4198 32.1428 38.9188C32.3997 39.4177 32.5091 39.9231 32.4708 40.4348C32.4325 40.9465 32.2478 41.4271 31.9167 41.8765C31.5856 42.3259 31.1813 42.6447 30.7039 42.8329C30.2265 43.021 29.7115 43.0663 29.1588 42.9687C28.6061 42.8711 28.0518 42.6176 27.4961 42.2081C26.9403 41.7986 26.5339 41.3444 26.277 40.8454C26.02 40.3464 25.9107 39.8411 25.949 39.3294C25.9872 38.8177 26.1719 38.3371 26.5031 37.8877C26.8342 37.4383 27.2385 37.1195 27.7159 36.9313C28.1933 36.7432 28.7083 36.6979 29.261 36.7955C29.8137 36.893 30.3679 37.1466 30.9237 37.5561ZM30.4687 38.1736C30.0124 37.8374 29.5711 37.63 29.1447 37.5514C28.7196 37.471 28.3309 37.501 27.9789 37.6412C27.628 37.7797 27.3351 38.0085 27.1 38.3275C26.8649 38.6466 26.7326 38.995 26.703 39.3728C26.6746 39.7489 26.7612 40.129 26.9626 40.5129C27.1653 40.8952 27.4948 41.2544 27.9511 41.5906C28.4073 41.9268 28.848 42.135 29.2732 42.2154C29.6996 42.294 30.0882 42.2641 30.439 42.1256C30.7911 41.9853 31.0847 41.7557 31.3198 41.4367C31.5548 41.1176 31.6865 40.77 31.7149 40.3939C31.7445 40.0161 31.6579 39.6361 31.4553 39.2538C31.2538 38.8699 30.925 38.5098 30.4687 38.1736Z" fill="#8C6CAA"/>
<path d="M35.2649 37.7689L33.8607 39.2209L29.1557 34.6705L30.6221 33.1543C31.0635 32.6978 31.5354 32.3984 32.0378 32.2559C32.5387 32.1119 33.0482 32.123 33.5663 32.2891C34.0829 32.4538 34.5847 32.7716 35.0717 33.2426C35.5618 33.7166 35.8994 34.212 36.0843 34.7288C36.2677 35.2441 36.2929 35.7605 36.1599 36.278C36.0254 36.7941 35.7271 37.2911 35.2649 37.7689ZM33.9063 38.1623L34.7239 37.3169C35.1002 36.9279 35.3369 36.5329 35.4342 36.1319C35.5315 35.731 35.5022 35.3337 35.3465 34.94C35.1907 34.5463 34.9214 34.1643 34.5385 33.794C34.1587 33.4267 33.7717 33.1724 33.3775 33.0314C32.9819 32.8888 32.5913 32.8697 32.2058 32.9741C31.8187 33.077 31.4475 33.3122 31.092 33.6798L30.2121 34.5896L33.9063 38.1623Z" fill="#8C6CAA"/>
<path d="M37.6357 26.969L38.2578 26.4778L40.9436 29.879C41.2209 30.2301 41.3858 30.609 41.4381 31.0157C41.4908 31.4193 41.4302 31.8187 41.2563 32.214C41.0811 32.6075 40.7921 32.9634 40.3891 33.2817C39.9861 33.5999 39.5729 33.7986 39.1494 33.8778C38.7246 33.9553 38.3212 33.9223 37.9391 33.7788C37.5574 33.6323 37.2278 33.3835 36.9505 33.0323L34.2647 29.6312L34.8867 29.1399L37.533 32.4909C37.731 32.7418 37.9625 32.9214 38.2274 33.0299C38.4909 33.1367 38.7689 33.1656 39.0614 33.1165C39.3542 33.0645 39.6436 32.9255 39.9295 32.6997C40.2155 32.4739 40.4177 32.2246 40.5362 31.9519C40.6534 31.6774 40.6898 31.4003 40.6453 31.1205C40.6012 30.8377 40.4801 30.5709 40.282 30.32L37.6357 26.969Z" fill="#8C6CAA"/>
<path d="M45.152 24.6798L44.4701 25.0838C44.3135 24.9115 44.1409 24.781 43.9521 24.6922C43.7652 24.6023 43.5703 24.5494 43.3676 24.5332C43.1657 24.5142 42.9633 24.53 42.7606 24.5807C42.5579 24.6315 42.363 24.7122 42.176 24.823C41.835 25.0249 41.5772 25.2941 41.4024 25.6304C41.2295 25.9656 41.1608 26.3492 41.1964 26.7813C41.2337 27.2124 41.3968 27.6717 41.6857 28.1594C41.9745 28.647 42.2989 29.0108 42.659 29.2507C43.0208 29.4896 43.3903 29.6137 43.7673 29.6232C44.1462 29.6315 44.5062 29.5347 44.8472 29.3328C45.0341 29.222 45.1986 29.0899 45.3405 28.9365C45.4824 28.7831 45.5941 28.6142 45.6756 28.4298C45.7577 28.2424 45.8044 28.0452 45.8154 27.838C45.8272 27.628 45.7957 27.4139 45.7209 27.1957L46.4029 26.7917C46.522 27.11 46.5811 27.4229 46.5801 27.7306C46.5791 28.0382 46.525 28.3316 46.4178 28.6105C46.3095 28.8876 46.1542 29.1418 45.9519 29.373C45.7515 29.6032 45.5092 29.8024 45.225 29.9707C44.7447 30.2552 44.2481 30.3909 43.7351 30.3777C43.2221 30.3646 42.7303 30.2052 42.2595 29.8996C41.7888 29.594 41.3775 29.1442 41.0257 28.5503C40.6739 27.9563 40.4771 27.3795 40.4353 26.8198C40.3936 26.2601 40.4902 25.7522 40.7252 25.296C40.9602 24.8398 41.3178 24.4695 41.7981 24.185C42.0823 24.0167 42.3735 23.9 42.6716 23.8348C42.9717 23.7685 43.2697 23.7554 43.5659 23.7955C43.8609 23.8337 44.1436 23.9263 44.4139 24.0733C44.6831 24.2184 44.9291 24.4206 45.152 24.6798Z" fill="#8C6CAA"/>
<path d="M45.9183 22.817L45.6438 22.1696L50.1633 20.2532L50.4378 20.9005L48.5429 21.704L50.8237 27.0828L50.094 27.3922L47.8132 22.0134L45.9183 22.817Z" fill="#8C6CAA"/>
<path d="M66.0296 20.2432L66.1071 20.942L57.2243 22.3899L57.1468 21.6911L66.0296 20.2432Z" fill="#8C6CAA"/>
</svg>
