<svg width="166" height="166" viewBox="0 0 166 166" fill="none" xmlns="http://www.w3.org/2000/svg">
<path d="M99.9853 43.8862L139.726 26.2745L122.114 66.0147L121.688 66.9748L122.668 67.3528L163.222 83L122.668 98.6472L121.688 99.0252L122.114 99.9853L139.726 139.726L99.9853 122.114L99.0252 121.688L98.6472 122.668L83 163.222L67.3528 122.668L66.9748 121.688L66.0147 122.114L26.2745 139.726L43.8862 99.9853L44.3117 99.0252L43.332 98.6472L2.77799 83L43.332 67.3528L44.3117 66.9748L43.8862 66.0147L26.2745 26.2745L66.0147 43.8862L66.9748 44.3117L67.3528 43.332L83 2.77799L98.6472 43.332L99.0252 44.3117L99.9853 43.8862Z" fill="#F5683C" stroke="white" stroke-width="2"/>
</svg>
